<?xml version="1.0" encoding="UTF-8"?><svg xmlns="http://www.w3.org/2000/svg" viewBox="0 0 864 4681" role="img" aria-label="Sky Rush コースプレビュー">
  <style>
    text { fill: #eef7ff; font-size: 13px; font-weight: 700; font-family: system-ui, sans-serif; paint-order: stroke; stroke: #071724; stroke-width: 4px; }
    .title { fill: #ffd166; font-size: 24px; stroke-width: 5px; }
    .note { fill: #bcd1df; font-size: 14px; font-weight: 600; stroke-width: 3px; }
    .band { fill: #9fd8ff; font-size: 15px; }
    .goal { fill: #ffd166; font-size: 18px; }
  </style>
  <rect width="100%" height="100%" fill="#0f2c40" />

    <text x="80" y="30" class="title">はじまりの空庭</text>
    <text x="80" y="56" class="note">昔の自然な散らばり感をベースにした初級コース。黄色は消える床、紫は伸縮バーです。</text>

    <line x1="80" y1="648.0" x2="784.0" y2="648.0" stroke="rgba(255,255,255,0.16)" stroke-dasharray="6 8" />
    <text x="80" y="638.0" class="band">序盤: 横に散る</text>

    <line x1="80" y1="489.6" x2="784.0" y2="489.6" stroke="rgba(255,255,255,0.16)" stroke-dasharray="6 8" />
    <text x="80" y="479.6" class="band">中盤: ルート選択</text>

    <line x1="80" y1="332.8" x2="784.0" y2="332.8" stroke="rgba(255,255,255,0.16)" stroke-dasharray="6 8" />
    <text x="80" y="322.8" class="band">終盤前: タイミング</text>

    <line x1="80" y1="163.2" x2="784.0" y2="163.2" stroke="rgba(255,255,255,0.16)" stroke-dasharray="6 8" />
    <text x="80" y="153.2" class="band">終盤: ゴールへ</text>

    <line x1="128.0" y1="734.7" x2="736.0" y2="734.7" stroke="#ffffff" stroke-width="2" opacity="0.2" />
    <text x="432.0" y="768.7" text-anchor="middle">START FLOOR / 20人対応</text>
    <text x="432.0" y="92.0" text-anchor="middle" class="goal">GOAL</text>

    <g>
      <rect x="128.0" y="734.7" width="608.0" height="9.6" rx="3" fill="#6fc89a" stroke="#dce7ee" stroke-width="2" />
      <text x="432.0" y="728.7" text-anchor="middle">0 / -46m</text>
    </g>
    <g>
      <rect x="163.2" y="648.0" width="137.6" height="8.0" rx="3" fill="#6fc89a" stroke="#dce7ee" stroke-width="2" />
      <text x="232.0" y="642.0" text-anchor="middle">1 / 225m</text>
    </g>
    <g>
      <rect x="393.6" y="648.0" width="137.6" height="8.0" rx="3" fill="#f2c960" stroke="#dce7ee" stroke-width="2" />
      <text x="462.4" y="642.0" text-anchor="middle">2 / 225m / vanish</text>
    </g>
    <g>
      <rect x="323.2" y="569.6" width="115.2" height="8.0" rx="3" fill="#6fc89a" stroke="#dce7ee" stroke-width="2" />
      <text x="380.8" y="563.6" text-anchor="middle">3 / 470m</text>
    </g>
    <g>
      <rect x="204.8" y="489.6" width="115.2" height="8.0" rx="3" fill="#f2c960" stroke="#dce7ee" stroke-width="2" />
      <text x="262.4" y="483.6" text-anchor="middle">4 / 720m / vanish</text>
    </g>
    <g>
      <rect x="412.8" y="489.6" width="118.4" height="8.0" rx="3" fill="#6fc89a" stroke="#dce7ee" stroke-width="2" />
      <text x="472.0" y="483.6" text-anchor="middle">5 / 720m</text>
    </g>
    <g>
      <rect x="559.8" y="409.6" width="105.6" height="8.0" rx="3" fill="#6fc89a" stroke="#dce7ee" stroke-width="2" />
      <text x="612.6" y="403.6" text-anchor="middle">6 / 970m</text>
    </g>
    <g>
      <rect x="422.4" y="332.8" width="96.0" height="8.0" rx="3" fill="#a78bfa" stroke="#dce7ee" stroke-width="2" />
      <text x="470.4" y="326.8" text-anchor="middle">7 / 1210m / stretch</text>
    </g>
    <g>
      <rect x="323.2" y="252.8" width="96.0" height="8.0" rx="3" fill="#f2c960" stroke="#dce7ee" stroke-width="2" />
      <text x="371.2" y="246.8" text-anchor="middle">8 / 1460m / vanish</text>
    </g>
    <g>
      <rect x="489.6" y="252.8" width="96.0" height="8.0" rx="3" fill="#f2c960" stroke="#dce7ee" stroke-width="2" />
      <text x="537.6" y="246.8" text-anchor="middle">9 / 1460m / vanish</text>
    </g>
    <g>
      <rect x="352.0" y="163.2" width="96.0" height="8.0" rx="3" fill="#6fc89a" stroke="#dce7ee" stroke-width="2" />
      <text x="400.0" y="157.2" text-anchor="middle">10 / 1740m</text>
    </g>

    <text x="80" y="950.32" class="title">雲間ジャンブル</text>
    <text x="80" y="976.32" class="note">5000mの中級コース。消える床を多めにしつつ、左右へ自然に散らばる配置です。</text>

    <line x1="80" y1="2513.9" x2="784.0" y2="2513.9" stroke="rgba(255,255,255,0.16)" stroke-dasharray="6 8" />
    <text x="80" y="2503.9" class="band">序盤: 広めに散る</text>

    <line x1="80" y1="2091.5" x2="784.0" y2="2091.5" stroke="rgba(255,255,255,0.16)" stroke-dasharray="6 8" />
    <text x="80" y="2081.5" class="band">中盤: 消える床多め</text>

    <line x1="80" y1="1669.1" x2="784.0" y2="1669.1" stroke="rgba(255,255,255,0.16)" stroke-dasharray="6 8" />
    <text x="80" y="1659.1" class="band">後半: ルート収束</text>

    <line x1="80" y1="1246.7" x2="784.0" y2="1246.7" stroke="rgba(255,255,255,0.16)" stroke-dasharray="6 8" />
    <text x="80" y="1236.7" class="band">終盤: タイミング勝負</text>

    <line x1="128.0" y1="2615.0" x2="736.0" y2="2615.0" stroke="#ffffff" stroke-width="2" opacity="0.2" />
    <text x="432.0" y="2649.0" text-anchor="middle">START FLOOR / 20人対応</text>
    <text x="432.0" y="1012.3" text-anchor="middle" class="goal">GOAL</text>

    <g>
      <rect x="128.0" y="2615.0" width="608.0" height="9.6" rx="3" fill="#6fc89a" stroke="#dce7ee" stroke-width="2" />
      <text x="432.0" y="2609.0" text-anchor="middle">0 / -46m</text>
    </g>
    <g>
      <rect x="163.2" y="2513.9" width="121.6" height="8.0" rx="3" fill="#f2c960" stroke="#dce7ee" stroke-width="2" />
      <text x="224.0" y="2507.9" text-anchor="middle">1 / 270m / vanish</text>
    </g>
    <g>
      <rect x="384.0" y="2513.9" width="124.8" height="8.0" rx="3" fill="#6fc89a" stroke="#dce7ee" stroke-width="2" />
      <text x="446.4" y="2507.9" text-anchor="middle">2 / 270m</text>
    </g>
    <g>
      <rect x="579.2" y="2513.9" width="115.2" height="8.0" rx="3" fill="#f2c960" stroke="#dce7ee" stroke-width="2" />
      <text x="636.8" y="2507.9" text-anchor="middle">3 / 270m / vanish</text>
    </g>
    <g>
      <rect x="288.0" y="2408.3" width="112.0" height="8.0" rx="3" fill="#f2c960" stroke="#dce7ee" stroke-width="2" />
      <text x="344.0" y="2402.3" text-anchor="middle">4 / 600m / vanish</text>
    </g>
    <g>
      <rect x="483.2" y="2408.3" width="115.2" height="8.0" rx="3" fill="#6fc89a" stroke="#dce7ee" stroke-width="2" />
      <text x="540.8" y="2402.3" text-anchor="middle">5 / 600m</text>
    </g>
    <g>
      <rect x="195.2" y="2302.7" width="105.6" height="8.0" rx="3" fill="#6fc89a" stroke="#dce7ee" stroke-width="2" />
      <text x="248.0" y="2296.7" text-anchor="middle">6 / 930m</text>
    </g>
    <g>
      <rect x="409.6" y="2302.7" width="108.8" height="8.0" rx="3" fill="#f2c960" stroke="#dce7ee" stroke-width="2" />
      <text x="464.0" y="2296.7" text-anchor="middle">7 / 930m / vanish</text>
    </g>
    <g>
      <rect x="531.2" y="2197.1" width="105.6" height="8.0" rx="3" fill="#f2c960" stroke="#dce7ee" stroke-width="2" />
      <text x="584.0" y="2191.1" text-anchor="middle">8 / 1260m / vanish</text>
    </g>
    <g>
      <rect x="323.2" y="2197.1" width="105.6" height="8.0" rx="3" fill="#6fc89a" stroke="#dce7ee" stroke-width="2" />
      <text x="376.0" y="2191.1" text-anchor="middle">9 / 1260m</text>
    </g>
    <g>
      <rect x="230.4" y="2091.5" width="102.4" height="8.0" rx="3" fill="#f2c960" stroke="#dce7ee" stroke-width="2" />
      <text x="281.6" y="2085.5" text-anchor="middle">10 / 1590m / vanish</text>
    </g>
    <g>
      <rect x="435.2" y="2091.5" width="105.6" height="8.0" rx="3" fill="#a78bfa" stroke="#dce7ee" stroke-width="2" />
      <text x="488.0" y="2085.5" text-anchor="middle">11 / 1590m / stretch</text>
    </g>
    <g>
      <rect x="537.6" y="1985.9" width="99.2" height="8.0" rx="3" fill="#f2c960" stroke="#dce7ee" stroke-width="2" />
      <text x="587.2" y="1979.9" text-anchor="middle">12 / 1920m / vanish</text>
    </g>
    <g>
      <rect x="316.8" y="1985.9" width="102.4" height="8.0" rx="3" fill="#6fc89a" stroke="#dce7ee" stroke-width="2" />
      <text x="368.0" y="1979.9" text-anchor="middle">13 / 1920m</text>
    </g>
    <g>
      <rect x="246.4" y="1880.3" width="96.0" height="8.0" rx="3" fill="#f2c960" stroke="#dce7ee" stroke-width="2" />
      <text x="294.4" y="1874.3" text-anchor="middle">14 / 2250m / vanish</text>
    </g>
    <g>
      <rect x="451.2" y="1880.3" width="99.2" height="8.0" rx="3" fill="#6fc89a" stroke="#dce7ee" stroke-width="2" />
      <text x="500.8" y="1874.3" text-anchor="middle">15 / 2250m</text>
    </g>
    <g>
      <rect x="550.4" y="1774.7" width="96.0" height="8.0" rx="3" fill="#f2c960" stroke="#dce7ee" stroke-width="2" />
      <text x="598.4" y="1768.7" text-anchor="middle">16 / 2580m / vanish</text>
    </g>
    <g>
      <rect x="345.6" y="1774.7" width="96.0" height="8.0" rx="3" fill="#f2c960" stroke="#dce7ee" stroke-width="2" />
      <text x="393.6" y="1768.7" text-anchor="middle">17 / 2580m / vanish</text>
    </g>
    <g>
      <rect x="262.4" y="1669.1" width="96.0" height="8.0" rx="3" fill="#6fc89a" stroke="#dce7ee" stroke-width="2" />
      <text x="310.4" y="1663.1" text-anchor="middle">18 / 2910m</text>
    </g>
    <g>
      <rect x="441.6" y="1669.1" width="96.0" height="8.0" rx="3" fill="#f2c960" stroke="#dce7ee" stroke-width="2" />
      <text x="489.6" y="1663.1" text-anchor="middle">19 / 2910m / vanish</text>
    </g>
    <g>
      <rect x="518.4" y="1563.5" width="92.8" height="8.0" rx="3" fill="#f2c960" stroke="#dce7ee" stroke-width="2" />
      <text x="564.8" y="1557.5" text-anchor="middle">20 / 3240m / vanish</text>
    </g>
    <g>
      <rect x="329.6" y="1563.5" width="96.0" height="8.0" rx="3" fill="#a78bfa" stroke="#dce7ee" stroke-width="2" />
      <text x="377.6" y="1557.5" text-anchor="middle">21 / 3240m / stretch</text>
    </g>
    <g>
      <rect x="406.4" y="1457.9" width="96.0" height="8.0" rx="3" fill="#f2c960" stroke="#dce7ee" stroke-width="2" />
      <text x="454.4" y="1451.9" text-anchor="middle">22 / 3570m / vanish</text>
    </g>
    <g>
      <rect x="275.2" y="1352.3" width="92.8" height="8.0" rx="3" fill="#f2c960" stroke="#dce7ee" stroke-width="2" />
      <text x="321.6" y="1346.3" text-anchor="middle">23 / 3900m / vanish</text>
    </g>
    <g>
      <rect x="460.8" y="1352.3" width="92.8" height="8.0" rx="3" fill="#6fc89a" stroke="#dce7ee" stroke-width="2" />
      <text x="507.2" y="1346.3" text-anchor="middle">24 / 3900m</text>
    </g>
    <g>
      <rect x="377.6" y="1246.7" width="96.0" height="8.0" rx="3" fill="#f2c960" stroke="#dce7ee" stroke-width="2" />
      <text x="425.6" y="1240.7" text-anchor="middle">25 / 4230m / vanish</text>
    </g>
    <g>
      <rect x="457.6" y="1157.1" width="102.4" height="8.0" rx="3" fill="#6fc89a" stroke="#dce7ee" stroke-width="2" />
      <text x="508.8" y="1151.1" text-anchor="middle">26 / 4510m</text>
    </g>
    <g>
      <rect x="352.0" y="1083.5" width="96.0" height="8.0" rx="3" fill="#6fc89a" stroke="#dce7ee" stroke-width="2" />
      <text x="400.0" y="1077.5" text-anchor="middle">27 / 4740m</text>
    </g>

    <text x="80" y="2830.64" class="title">スカイラッシュ杯 予選</text>
    <text x="80" y="2856.64" class="note">5000mの20人対戦向けコース。序盤は広く、中盤で合流し、終盤は1ルート寄りに収束します。</text>

    <line x1="80" y1="4394.2" x2="784.0" y2="4394.2" stroke="rgba(255,255,255,0.16)" stroke-dasharray="6 8" />
    <text x="80" y="4384.2" class="band">序盤: 3ルートでばらける</text>

    <line x1="80" y1="3971.8" x2="784.0" y2="3971.8" stroke="rgba(255,255,255,0.16)" stroke-dasharray="6 8" />
    <text x="80" y="3961.8" class="band">中盤: 合流と押し合い</text>

    <line x1="80" y1="3549.4" x2="784.0" y2="3549.4" stroke="rgba(255,255,255,0.16)" stroke-dasharray="6 8" />
    <text x="80" y="3539.4" class="band">後半: 消える床と伸縮バー</text>

    <line x1="80" y1="3127.0" x2="784.0" y2="3127.0" stroke="rgba(255,255,255,0.16)" stroke-dasharray="6 8" />
    <text x="80" y="3117.0" class="band">終盤: 予選突破ルートへ収束</text>

    <line x1="128.0" y1="4495.4" x2="736.0" y2="4495.4" stroke="#ffffff" stroke-width="2" opacity="0.2" />
    <text x="432.0" y="4529.4" text-anchor="middle">START FLOOR / 20人対応</text>
    <text x="432.0" y="2892.6" text-anchor="middle" class="goal">GOAL</text>

    <g>
      <rect x="128.0" y="4495.4" width="608.0" height="9.6" rx="3" fill="#6fc89a" stroke="#dce7ee" stroke-width="2" />
      <text x="432.0" y="4489.4" text-anchor="middle">0 / -46m</text>
    </g>
    <g>
      <rect x="153.6" y="4394.2" width="137.6" height="8.0" rx="3" fill="#6fc89a" stroke="#dce7ee" stroke-width="2" />
      <text x="222.4" y="4388.2" text-anchor="middle">1 / 270m</text>
    </g>
    <g>
      <rect x="368.0" y="4394.2" width="134.4" height="8.0" rx="3" fill="#a78bfa" stroke="#dce7ee" stroke-width="2" />
      <text x="435.2" y="4388.2" text-anchor="middle">2 / 270m / stretch</text>
    </g>
    <g>
      <rect x="569.6" y="4394.2" width="124.8" height="8.0" rx="3" fill="#6fc89a" stroke="#dce7ee" stroke-width="2" />
      <text x="632.0" y="4388.2" text-anchor="middle">3 / 270m</text>
    </g>
    <g>
      <rect x="262.4" y="4288.6" width="115.2" height="8.0" rx="3" fill="#f2c960" stroke="#dce7ee" stroke-width="2" />
      <text x="320.0" y="4282.6" text-anchor="middle">4 / 600m / vanish</text>
    </g>
    <g>
      <rect x="457.6" y="4288.6" width="121.6" height="8.0" rx="3" fill="#6fc89a" stroke="#dce7ee" stroke-width="2" />
      <text x="518.4" y="4282.6" text-anchor="middle">5 / 600m</text>
    </g>
    <g>
      <rect x="192.0" y="4183.0" width="108.8" height="8.0" rx="3" fill="#6fc89a" stroke="#dce7ee" stroke-width="2" />
      <text x="246.4" y="4177.0" text-anchor="middle">6 / 930m</text>
    </g>
    <g>
      <rect x="409.6" y="4183.0" width="112.0" height="8.0" rx="3" fill="#f2c960" stroke="#dce7ee" stroke-width="2" />
      <text x="465.6" y="4177.0" text-anchor="middle">7 / 930m / vanish</text>
    </g>
    <g>
      <rect x="569.6" y="4183.0" width="99.2" height="8.0" rx="3" fill="#a78bfa" stroke="#dce7ee" stroke-width="2" />
      <text x="619.2" y="4177.0" text-anchor="middle">8 / 930m / stretch</text>
    </g>
    <g>
      <rect x="307.2" y="4077.4" width="105.6" height="8.0" rx="3" fill="#6fc89a" stroke="#dce7ee" stroke-width="2" />
      <text x="360.0" y="4071.4" text-anchor="middle">9 / 1260m</text>
    </g>
    <g>
      <rect x="502.4" y="4077.4" width="105.6" height="8.0" rx="3" fill="#f2c960" stroke="#dce7ee" stroke-width="2" />
      <text x="555.2" y="4071.4" text-anchor="middle">10 / 1260m / vanish</text>
    </g>
    <g>
      <rect x="220.8" y="3971.8" width="99.2" height="8.0" rx="3" fill="#f2c960" stroke="#dce7ee" stroke-width="2" />
      <text x="270.4" y="3965.8" text-anchor="middle">11 / 1590m / vanish</text>
    </g>
    <g>
      <rect x="419.2" y="3971.8" width="105.6" height="8.0" rx="3" fill="#a78bfa" stroke="#dce7ee" stroke-width="2" />
      <text x="472.0" y="3965.8" text-anchor="middle">12 / 1590m / stretch</text>
    </g>
    <g>
      <rect x="537.6" y="3866.2" width="99.2" height="8.0" rx="3" fill="#6fc89a" stroke="#dce7ee" stroke-width="2" />
      <text x="587.2" y="3860.2" text-anchor="middle">13 / 1920m</text>
    </g>
    <g>
      <rect x="326.4" y="3866.2" width="102.4" height="8.0" rx="3" fill="#f2c960" stroke="#dce7ee" stroke-width="2" />
      <text x="377.6" y="3860.2" text-anchor="middle">14 / 1920m / vanish</text>
    </g>
    <g>
      <rect x="246.4" y="3760.6" width="96.0" height="8.0" rx="3" fill="#6fc89a" stroke="#dce7ee" stroke-width="2" />
      <text x="294.4" y="3754.6" text-anchor="middle">15 / 2250m</text>
    </g>
    <g>
      <rect x="451.2" y="3760.6" width="99.2" height="8.0" rx="3" fill="#f2c960" stroke="#dce7ee" stroke-width="2" />
      <text x="500.8" y="3754.6" text-anchor="middle">16 / 2250m / vanish</text>
    </g>
    <g>
      <rect x="537.6" y="3655.0" width="96.0" height="8.0" rx="3" fill="#a78bfa" stroke="#dce7ee" stroke-width="2" />
      <text x="585.6" y="3649.0" text-anchor="middle">17 / 2580m / stretch</text>
    </g>
    <g>
      <rect x="345.6" y="3655.0" width="96.0" height="8.0" rx="3" fill="#6fc89a" stroke="#dce7ee" stroke-width="2" />
      <text x="393.6" y="3649.0" text-anchor="middle">18 / 2580m</text>
    </g>
    <g>
      <rect x="259.2" y="3549.4" width="96.0" height="8.0" rx="3" fill="#f2c960" stroke="#dce7ee" stroke-width="2" />
      <text x="307.2" y="3543.4" text-anchor="middle">19 / 2910m / vanish</text>
    </g>
    <g>
      <rect x="441.6" y="3549.4" width="96.0" height="8.0" rx="3" fill="#6fc89a" stroke="#dce7ee" stroke-width="2" />
      <text x="489.6" y="3543.4" text-anchor="middle">20 / 2910m</text>
    </g>
    <g>
      <rect x="332.8" y="3443.8" width="92.8" height="8.0" rx="3" fill="#a78bfa" stroke="#dce7ee" stroke-width="2" />
      <text x="379.2" y="3437.8" text-anchor="middle">21 / 3240m / stretch</text>
    </g>
    <g>
      <rect x="518.4" y="3443.8" width="92.8" height="8.0" rx="3" fill="#f2c960" stroke="#dce7ee" stroke-width="2" />
      <text x="564.8" y="3437.8" text-anchor="middle">22 / 3240m / vanish</text>
    </g>
    <g>
      <rect x="403.2" y="3338.2" width="96.0" height="8.0" rx="3" fill="#6fc89a" stroke="#dce7ee" stroke-width="2" />
      <text x="451.2" y="3332.2" text-anchor="middle">23 / 3570m</text>
    </g>
    <g>
      <rect x="288.0" y="3232.6" width="92.8" height="8.0" rx="3" fill="#f2c960" stroke="#dce7ee" stroke-width="2" />
      <text x="334.4" y="3226.6" text-anchor="middle">24 / 3900m / vanish</text>
    </g>
    <g>
      <rect x="460.8" y="3232.6" width="92.8" height="8.0" rx="3" fill="#6fc89a" stroke="#dce7ee" stroke-width="2" />
      <text x="507.2" y="3226.6" text-anchor="middle">25 / 3900m</text>
    </g>
    <g>
      <rect x="377.6" y="3127.0" width="92.8" height="8.0" rx="3" fill="#f2c960" stroke="#dce7ee" stroke-width="2" />
      <text x="424.0" y="3121.0" text-anchor="middle">26 / 4230m / vanish</text>
    </g>
    <g>
      <rect x="457.6" y="3037.4" width="99.2" height="8.0" rx="3" fill="#a78bfa" stroke="#dce7ee" stroke-width="2" />
      <text x="507.2" y="3031.4" text-anchor="middle">27 / 4510m / stretch</text>
    </g>
    <g>
      <rect x="352.0" y="2963.8" width="96.0" height="8.0" rx="3" fill="#6fc89a" stroke="#dce7ee" stroke-width="2" />
      <text x="400.0" y="2957.8" text-anchor="middle">28 / 4740m</text>
    </g>

</svg>